<?xml version="1.0" standalone="no"?>
<!DOCTYPE svg PUBLIC "-//W3C//DTD SVG 20010904//EN"
 "http://www.w3.org/TR/2001/REC-SVG-20010904/DTD/svg10.dtd">
<svg version="1.0" xmlns="http://www.w3.org/2000/svg"
 width="750.000000pt" height="750.000000pt" viewBox="0 0 750.000000 750.000000"
 preserveAspectRatio="xMidYMid meet">
<metadata>
Created by potrace 1.11, written by Peter Selinger 2001-2013
</metadata>
<g transform="translate(0.000000,750.000000) scale(0.100000,-0.100000)"
fill="#000000" stroke="none">
<path d="M574 7485 c-287 -62 -509 -289 -556 -568 -10 -59 -13 -726 -11 -3178
0 -1707 3 -3115 6 -3129 40 -213 157 -386 335 -494 62 -37 177 -79 259 -94 30
-5 1300 -9 3140 -9 3334 0 3151 -3 3286 52 241 97 405 305 444 565 7 52 7
6197 -1 6254 -23 163 -95 304 -213 417 -94 90 -198 146 -330 178 -76 19 -161
19 -3188 19 -2541 0 -3121 -2 -3171 -13z m5566 -779 c14 -3 37 -8 52 -11 31
-6 107 -37 163 -67 170 -91 302 -276 335 -468 13 -76 10 -4796 -3 -4845 -72
-269 -310 -481 -573 -511 -32 -3 -1107 -6 -2389 -6 -2560 0 -2396 -4 -2538 60
-197 90 -333 252 -384 459 -15 62 -16 268 -17 2423 -1 1295 1 2371 5 2390 4
19 10 49 12 65 13 84 85 219 163 305 100 111 272 195 429 212 58 6 4720 0
4745 -6z"/>
<path d="M1395 6433 c-159 -35 -274 -142 -315 -293 -9 -34 -12 -591 -12 -2390
1 -2553 -3 -2383 55 -2483 47 -80 155 -160 249 -184 13 -3 1071 -6 2353 -7
1698 -2 2344 1 2381 9 123 28 222 106 276 220 l33 70 2 2366 c3 2319 3 2367
-16 2422 -44 127 -153 231 -277 264 -30 8 -4694 14 -4729 6z m1735 -367 c132
-26 185 -43 272 -87 162 -82 279 -199 329 -327 19 -49 22 -78 24 -220 l1 -162
-390 2 -391 3 0 118 c0 98 -2 117 -15 118 -48 4 -740 3 -741 -1 0 -3 -1 -92
-1 -199 -2 -222 -12 -197 107 -258 39 -19 93 -48 120 -63 28 -15 93 -50 145
-77 52 -28 160 -86 240 -128 80 -43 188 -100 240 -128 52 -27 113 -60 135 -72
22 -12 90 -48 150 -80 136 -72 202 -114 254 -160 44 -40 110 -134 116 -165 2
-11 7 -25 11 -31 14 -23 18 -99 18 -344 0 -279 -2 -291 -38 -371 -88 -193
-360 -359 -626 -381 -93 -8 -904 -8 -980 -1 -251 27 -477 153 -591 329 -50 79
-66 152 -67 322 l-1 147 390 0 391 0 -2 -42 c-1 -24 -1 -79 -1 -123 l1 -80
378 0 377 0 3 211 2 210 -92 49 c-51 26 -133 69 -183 95 -49 26 -162 84 -250
130 -647 335 -718 372 -775 408 -117 74 -199 183 -226 301 -14 58 -14 548 0
605 53 221 347 428 641 452 39 4 71 7 72 8 6 5 924 -3 953 -8z"/>
</g>
</svg>
