<?xml version="1.0" encoding="UTF-8" standalone="no"?>
<svg width="250px" height="250px" viewBox="0 0 250 250" version="1.1" xmlns="http://www.w3.org/2000/svg" xmlns:xlink="http://www.w3.org/1999/xlink">
    <!-- Generator: Sketch 3.7.2 (28276) - http://www.bohemiancoding.com/sketch -->
    <title>LOGO</title>
    <desc>Created with Sketch.</desc>
    <defs></defs>
    <g id="Symbols" stroke="none" stroke-width="1" fill="none" fill-rule="evenodd">
        <g id="LOGO" fill="#000000">
            <g id="Shape">
                <path d="M200.731855,35.3869048 L48.8245968,35.3869048 C41.515457,35.3869048 35.5685484,41.2354497 35.5685484,48.4279101 L35.5685484,201.146825 C35.5685484,208.333333 41.5114247,214.185847 48.8245968,214.185847 L200.732527,214.185847 C208.039651,214.185847 213.986559,208.337302 213.986559,201.146825 L213.986559,48.4279101 C213.982527,41.2354497 208.038978,35.3869048 200.731855,35.3869048 L200.731855,35.3869048 Z M125.206317,74.3062169 L99.2009409,74.3062169 L99.2009409,66.1421958 L73.9072581,66.1421958 L73.9072581,79.6428571 L115.190188,101.626984 C121.867608,105.180556 125.206317,109.957672 125.206317,115.957672 L125.206317,129.84127 C125.206317,134.853175 122.611559,139.210317 117.43414,142.916667 C112.248656,146.623016 106.291667,148.474868 99.5544355,148.474868 L73.9072581,148.474868 C67.1102151,148.474868 61.1666667,146.636905 56.0725806,142.945106 C50.9731183,139.266534 48.4321237,134.918651 48.4321237,129.902778 L48.4321237,121.67328 L74.2533602,121.67328 L74.2533602,129.837302 L99.6418011,129.837302 L99.6418011,115.756614 L58.6149194,94.422619 C51.8245968,90.8683862 48.4287634,86.0462963 48.4287634,79.962963 L48.4287634,66.0806878 C48.4287634,61.1097884 50.9885753,56.7705026 56.1155914,53.0648148 C61.2399194,49.359127 67.1969086,47.5059524 73.9872312,47.5059524 L99.5517473,47.5059524 C106.288978,47.5059524 112.245968,49.369709 117.431452,53.0992063 C122.609543,56.827381 125.203629,61.1772487 125.203629,66.146164 L125.203629,74.3068783 L125.206317,74.3068783 L125.206317,74.3062169 Z M225.589382,0 L23.9663978,0 C10.8158602,0 0.15188172,10.4953704 0.15188172,23.4384921 L0.15188172,226.126323 C0.15188172,239.071429 10.8165323,249.564815 23.9670699,249.564815 L225.593414,249.564815 C238.743952,249.564815 249.40793,239.071429 249.40793,226.126323 L249.40793,23.4384921 C249.406586,10.4953704 238.74328,0 225.589382,0 L225.589382,0 Z M223.374328,201.138889 C223.374328,213.421958 213.217742,223.421296 200.732527,223.421296 L48.8245968,223.421296 C36.3407258,223.421296 26.1801075,213.425265 26.1801075,201.138889 L26.1801075,48.4279101 C26.1801075,36.1468254 36.3373656,26.1474868 48.8245968,26.1474868 L200.732527,26.1474868 C213.21371,26.1474868 223.374328,36.1435185 223.374328,48.4279101 L223.374328,201.138889 L223.374328,201.138889 Z"></path>
            </g>
        </g>
    </g>
</svg>