<?xml version="1.0" encoding="UTF-8" standalone="no"?>
<svg width="239px" height="164px" viewBox="0 0 239 164" version="1.1" xmlns="http://www.w3.org/2000/svg" xmlns:xlink="http://www.w3.org/1999/xlink">
    <!-- Generator: sketchtool 3.7.2 (28276) - http://www.bohemiancoding.com/sketch -->
    <title>1B7ACA39-BDFD-4A50-839E-B880717F9D10</title>
    <desc>Created with sketchtool.</desc>
    <defs>
        <rect id="path-1" x="0" y="80" width="1100" height="250"></rect>
        <filter x="-50%" y="-50%" width="200%" height="200%" filterUnits="objectBoundingBox" id="filter-2">
            <feOffset dx="0" dy="2" in="SourceAlpha" result="shadowOffsetOuter1"></feOffset>
            <feGaussianBlur stdDeviation="2" in="shadowOffsetOuter1" result="shadowBlurOuter1"></feGaussianBlur>
            <feColorMatrix values="0 0 0 0 0   0 0 0 0 0   0 0 0 0 0  0 0 0 0.5 0" type="matrix" in="shadowBlurOuter1"></feColorMatrix>
        </filter>
    </defs>
    <g id="Page-3" stroke="none" stroke-width="1" fill="none" fill-rule="evenodd">
        <g id="Desktop-HD" transform="translate(-292.000000, -124.000000)">
            <g id="Rectangle-1">
                <use fill="black" fill-opacity="1" filter="url(#filter-2)" xlink:href="#path-1"></use>
                <use fill="#FFFFFF" fill-rule="evenodd" xlink:href="#path-1"></use>
            </g>
            <g id="mac" transform="translate(292.000000, 124.000000)" fill="#000000">
                <path d="M216.597458,123.983305 L216.597458,115.146017 L216.597458,62.0999153 L216.597458,9.05381356 C216.597458,4.19889831 212.615085,0.216525424 207.748983,0.216525424 L30.9472881,0.216525424 C26.0839831,0.216525424 22.0904237,4.17932203 22.0904237,9.05381356 L22.0904237,62.0999153 L22.0904237,115.146017 L22.0904237,123.983305 L0,150.506356 C0,157.813898 5.93440678,163.756695 13.250339,163.756695 L225.434746,163.756695 C232.750678,163.756695 238.685085,157.811102 238.685085,150.506356 L216.597458,123.983305 L216.597458,123.983305 Z M137.039492,159.354831 L101.679153,159.354831 C100.448644,159.354831 99.4670339,158.37322 99.4670339,157.142712 C99.4670339,155.912203 100.448644,154.930593 101.679153,154.930593 L137.039492,154.930593 C138.250424,154.930593 139.25161,155.912203 139.25161,157.142712 C139.220847,158.37322 138.250424,159.354831 137.039492,159.354831 L137.039492,159.354831 Z M82.9027119,150.517542 L89.6481356,142.421356 L149.039746,142.421356 L155.785169,150.517542 L82.9027119,150.517542 L82.9027119,150.517542 Z M204.146949,108.350254 C204.146949,112.615085 200.673559,116.066102 196.439492,116.066102 L42.2455932,116.066102 C38.0115254,116.066102 34.5381356,112.584322 34.5381356,108.350254 L34.5381356,15.8691525 C34.5381356,11.604322 38.0115254,8.15330508 42.2455932,8.15330508 L196.439492,8.15330508 C200.673559,8.15330508 204.146949,11.6266949 204.146949,15.8691525 L204.146949,108.350254 L204.146949,108.350254 Z" id="Shape"></path>
                <path d="M156.755593,82.2774576 C154.624576,81.3573729 152.722881,80.1044915 151.000169,78.5439831 C149.769661,77.4337288 148.718136,76.1221186 147.867966,74.6902542 C147.247119,73.6583051 146.67661,72.5983898 146.245932,71.5077119 C145.815254,70.4170339 145.555169,69.2368644 145.264322,68.1042373 C145.054576,67.2624576 144.914746,66.4234746 144.864407,65.5621186 C144.794492,63.68 144.825254,61.8286441 145.264322,59.9772881 C145.633475,58.4671186 146.094915,57.015678 146.774492,55.6341525 C148.446864,52.2810169 150.888305,49.6801695 154.11,47.7784746 C154.330932,47.6078814 154.579831,47.4680508 154.859492,47.2890678 C154.649746,47.079322 154.518305,46.9087288 154.370085,46.7297458 C152.638983,44.5791525 150.547119,42.8172881 148.183983,41.4441525 C146.891949,40.694661 145.532797,40.0626271 144.179237,39.4921186 C143.379407,39.1509322 142.518051,38.9411864 141.676271,38.7622034 C140.896017,38.5832203 140.054237,38.5133051 139.265593,38.4126271 C137.173729,38.1637288 135.101441,38.4517797 133.071102,38.8433051 C132.081102,39.0222881 131.149831,39.3550847 130.187797,39.6627119 C129.396356,39.8920339 128.627288,40.2136441 127.86661,40.4821186 C127.195424,40.7114407 126.515847,41.0330508 125.833475,41.2120339 C124.793136,41.5028814 123.722034,41.7713559 122.662119,41.9838983 C120.760424,42.395 118.878305,42.0538136 117.038136,41.6035593 C116.17678,41.3938136 115.357373,41.0722034 114.515593,40.8037288 C113.525593,40.4821186 112.563559,40.1325424 111.562373,39.8025424 C110.701017,39.5228814 109.839661,39.1816949 108.950339,39.0027119 C107.91,38.7817797 106.827712,38.6335593 105.75661,38.4433898 C103.46339,38.0826271 101.203729,38.4433898 98.9720339,39.044661 C97.8198305,39.3438983 96.7011864,39.855678 95.6105085,40.3366949 C93.8486441,41.0777966 92.2769492,42.1684746 90.8171186,43.3598305 C88.8455085,44.9119492 87.184322,46.7828814 85.7524576,48.8355932 C84.7820339,50.1975424 83.9598305,51.5986441 83.4312712,53.1787288 C83.0117797,54.3505085 82.6314407,55.5418644 82.3014407,56.7527966 C82.0525424,57.7148305 81.8120339,58.665678 81.6805932,59.6444915 C81.5211864,60.7267797 81.4512712,61.8370339 81.4009322,62.9277119 C81.3422034,64.2588983 81.3198305,65.5900847 81.3617797,66.8905085 C81.4121186,68.1405932 81.5323729,69.3934746 81.6610169,70.6239831 C81.8008475,71.7957627 81.9714407,72.9647458 82.1811864,74.1477119 C82.3405932,74.9894915 82.5615254,75.8088983 82.7824576,76.6394915 C83.0928814,77.8392373 83.3921186,79.0529661 83.7836441,80.2219492 C84.2338983,81.5727119 84.7344915,82.9150847 85.2854237,84.204322 C86.0265254,85.9466102 86.7955932,87.6777119 87.6765254,89.3584746 C89.2090678,92.2501695 90.9988983,95.0244068 93.0012712,97.6448305 C94.3436441,99.4066949 95.7531356,101.087458 97.4562712,102.527712 C99.4166949,104.228051 101.578475,105.500508 104.201695,105.970339 C106.472542,106.361864 108.575593,105.889237 110.636695,105.108983 C111.677034,104.697881 112.67822,104.247627 113.710169,103.816949 C115.432881,103.075847 117.253475,102.625593 119.124407,102.44661 C121.395254,102.236864 123.607373,102.287203 125.791525,102.936017 C127.002458,103.285593 128.193814,103.735847 129.354407,104.228051 C131.015593,104.907627 132.626441,105.679492 134.438644,105.970339 C136.922034,106.361864 139.142542,105.791356 141.273559,104.619576 C143.186441,103.579237 144.825254,102.178136 146.257119,100.536525 C147.65822,98.9144915 148.969831,97.2141525 150.219915,95.4718644 C151.492373,93.71 152.703305,91.9201695 153.76322,90.0380508 C155.055254,87.7364407 156.165508,85.3033898 157.356864,82.9318644 C157.496695,82.6605932 157.387627,82.4704237 157.147119,82.3417797 C156.996102,82.3166102 156.864661,82.3166102 156.755593,82.2774576 L156.755593,82.2774576 Z" id="Shape"></path>
                <path d="M122.897034,38.2280508 C124.437966,37.7274576 125.889407,37.0059322 127.270932,36.1166102 C129.21178,34.8441525 130.872966,33.2752542 132.246102,31.3819492 C133.677966,29.460678 134.757458,27.3380508 135.467797,25.0476271 C135.987966,23.3668644 136.309576,21.6637288 136.189322,19.7340678 C136.189322,19.3537288 136.208898,18.8139831 136.189322,18.2714407 C136.169746,17.6505932 136.057881,17.5415254 135.467797,17.6505932 C134.195339,17.9218644 132.886525,18.14 131.65322,18.6014407 C130.221356,19.1607627 128.851017,19.8319492 127.550593,20.6122034 C124.538644,22.3936441 122.206271,24.8350847 120.455593,27.8498305 C119.636186,29.2705085 118.992966,30.7219492 118.523136,32.2628814 C118.31339,32.9927966 118.12322,33.7730508 118.022542,34.5561017 C117.851949,35.8285593 117.832373,37.1373729 118.002966,38.4294068 C118.042119,38.7985593 118.153983,38.9691525 118.534322,38.9607627 C120.024915,38.9411864 121.476356,38.6811017 122.897034,38.2280508 L122.897034,38.2280508 Z" id="Shape"></path>
            </g>
        </g>
    </g>
</svg>