<?xml version="1.0" encoding="UTF-8" standalone="no"?>
<svg width="110px" height="164px" viewBox="0 0 110 164" version="1.1" xmlns="http://www.w3.org/2000/svg" xmlns:xlink="http://www.w3.org/1999/xlink">
    <!-- Generator: sketchtool 3.7.2 (28276) - http://www.bohemiancoding.com/sketch -->
    <title>E136B28B-B57D-4EC0-A58D-EA141DB94D3E</title>
    <desc>Created with sketchtool.</desc>
    <defs>
        <rect id="path-1" x="0" y="80" width="1100" height="250"></rect>
        <filter x="-50%" y="-50%" width="200%" height="200%" filterUnits="objectBoundingBox" id="filter-2">
            <feOffset dx="0" dy="2" in="SourceAlpha" result="shadowOffsetOuter1"></feOffset>
            <feGaussianBlur stdDeviation="2" in="shadowOffsetOuter1" result="shadowBlurOuter1"></feGaussianBlur>
            <feColorMatrix values="0 0 0 0 0   0 0 0 0 0   0 0 0 0 0  0 0 0 0.5 0" type="matrix" in="shadowBlurOuter1"></feColorMatrix>
        </filter>
    </defs>
    <g id="Page-3" stroke="none" stroke-width="1" fill="none" fill-rule="evenodd">
        <g id="Desktop-HD" transform="translate(-908.000000, -123.000000)">
            <g id="Rectangle-1">
                <use fill="black" fill-opacity="1" filter="url(#filter-2)" xlink:href="#path-1"></use>
                <use fill="#FFFFFF" fill-rule="evenodd" xlink:href="#path-1"></use>
            </g>
            <g id="snart" transform="translate(907.000000, 123.000000)" fill="#000000">
                <path d="M87.0198214,50.2857143 C87.0198214,49.1071429 87.0198214,47.9285714 86.8214286,46.9464286 L69.5357143,54.4107143 L42.0357143,54.4107143 L25.7321429,47.7321429 C25.7321429,48.5178571 25.5357143,49.5 25.5357143,50.2857143 C25.5357143,67.1785714 39.2857143,80.9285714 56.1785714,80.9285714 C73.2698214,80.9285714 87.0198214,67.1785714 87.0198214,50.2857143 L87.0198214,50.2857143 Z" id="Shape"></path>
                <path d="M1.76785714,122.178571 L1.76785714,154.392857 L4.125,154.984107 C8.83928571,156.555536 13.5535714,157.734107 18.0714286,158.71625 L18.0714286,105.875 C18.0714286,96.4444643 23.5714286,88.1964286 31.4285714,84.2678571 C14.3392857,88.5892857 1.76785714,103.910714 1.76785714,122.178571 L1.76785714,122.178571 Z" id="Shape"></path>
                <path d="M46.75,83.09125 L44.1964286,88.0019643 C43.6071429,89.1805357 43.4107143,90.1626786 43.4107143,91.3392857 L43.4107143,107.446429 C43.4107143,111.767857 46.9464286,115.303571 51.2678571,115.303571 L61.4841071,115.303571 C65.8035714,115.303571 69.34125,111.767857 69.34125,107.446429 L69.34125,91.3392857 C69.34125,90.1607143 69.1428571,88.9841071 68.5555357,88.0019643 L66,83.09125 L46.75,83.09125 L46.75,83.09125 Z" id="Shape"></path>
                <path d="M77.5892857,91.7321429 L77.5892857,107.446429 C77.5892857,116.285714 70.3233929,123.553571 61.4841071,123.553571 L51.2678571,123.553571 C42.4285714,123.553571 35.1607143,116.285714 35.1607143,107.446429 L35.1607143,91.7321429 C29.8571429,94.2857143 26.3214286,99.7876786 26.3214286,105.875 L26.3214286,160.875 C37.3214286,163.035714 47.5357143,163.821429 56.375,163.821429 C65.2142857,163.821429 75.4285714,162.839286 86.4285714,160.875 L86.4285714,105.875 C86.4285714,99.7876786 82.8928571,94.2857143 77.5892857,91.7321429 L77.5892857,91.7321429 Z" id="Shape"></path>
                <path d="M81.3214286,84.2678571 C89.375,88.1964286 94.875,96.4444643 94.875,105.875 L94.875,159.107143 C99.3908929,158.125 104.105179,156.751964 108.821429,155.375 L110.982143,154.59125 L110.982143,122.376964 C110.982143,103.910714 98.4107143,88.5892857 81.3214286,84.2678571 L81.3214286,84.2678571 Z" id="Shape"></path>
                <path d="M56.375,23.9642857 C61.4841071,23.9642857 64.03375,19.4464286 64.03375,14.1428571 L64.03375,0 L56.375,0 L48.7142857,0 L48.7142857,13.9464286 C48.7142857,19.4464286 51.2678571,23.9642857 56.375,23.9642857 L56.375,23.9642857 Z" id="Shape"></path>
                <path d="M42.8214286,48.5178571 L69.7321429,48.5178571 L90.1607143,40.2678571 L91.9285714,34.375 L89.9642857,32.4107143 C88.7857143,15.9107143 79.9464286,4.51785714 67.7678571,0.196428571 L67.7678571,14.1428571 C67.7678571,22 63.0535714,28.6785714 56.375,28.6785714 C49.6964286,28.6785714 44.9821429,22.1964286 44.9821429,14.1428571 L44.9821429,0.196428571 C32.8035714,4.51785714 23.9642857,15.9107143 22.5892857,32.4107143 L20.625,34.375 L22.3928571,40.2678571 L42.8214286,48.5178571 L42.8214286,48.5178571 Z" id="Shape"></path>
            </g>
        </g>
    </g>
</svg>