<?xml version="1.0" encoding="UTF-8" standalone="no"?>
<svg width="188px" height="165px" viewBox="0 0 188 165" version="1.1" xmlns="http://www.w3.org/2000/svg" xmlns:xlink="http://www.w3.org/1999/xlink">
    <!-- Generator: sketchtool 3.7.2 (28276) - http://www.bohemiancoding.com/sketch -->
    <title>48EB5CB3-FC1C-4EC9-9119-E14C394C8662</title>
    <desc>Created with sketchtool.</desc>
    <defs>
        <rect id="path-1" x="0" y="80" width="1100" height="250"></rect>
        <filter x="-50%" y="-50%" width="200%" height="200%" filterUnits="objectBoundingBox" id="filter-2">
            <feOffset dx="0" dy="2" in="SourceAlpha" result="shadowOffsetOuter1"></feOffset>
            <feGaussianBlur stdDeviation="2" in="shadowOffsetOuter1" result="shadowBlurOuter1"></feGaussianBlur>
            <feColorMatrix values="0 0 0 0 0   0 0 0 0 0   0 0 0 0 0  0 0 0 0.5 0" type="matrix" in="shadowBlurOuter1"></feColorMatrix>
        </filter>
    </defs>
    <g id="Page-3" stroke="none" stroke-width="1" fill="none" fill-rule="evenodd">
        <g id="Desktop-HD" transform="translate(-44.000000, -123.000000)">
            <g id="Rectangle-1">
                <use fill="black" fill-opacity="1" filter="url(#filter-2)" xlink:href="#path-1"></use>
                <use fill="#FFFFFF" fill-rule="evenodd" xlink:href="#path-1"></use>
            </g>
            <g id="telnet" transform="translate(44.000000, 123.000000)" fill="#000000">
                <g id="Group" transform="translate(37.578035, 57.203757)">
                    <polygon id="Shape" points="40.8679916 42.3549928 40.8679916 53.8281178 0 36.1506178 0 26.3406178 40.8679916 8.66499277 40.8679916 20.2187428 12.3913569 31.1668678"></polygon>
                    <path d="M66.137341,8.42124277 L54.760591,55.1649928 C54.3829318,56.7043678 54.0522451,57.9231178 53.766652,58.8137428 C53.4829379,59.7062428 53.0489116,60.4056178 52.4683309,60.8987428 C51.8858714,61.4012428 51.0384867,61.6487428 49.9280558,61.6487428 C47.1660702,61.6487428 45.7831986,60.4543678 45.7831986,58.0824928 C45.7831986,57.4599928 46.0556393,55.9074928 46.596763,53.4212428 L57.9321772,6.67749277 C58.527789,4.19124277 59.0952173,2.48874277 59.636341,1.56999277 C60.1793436,0.651242775 61.2352864,0.191867775 62.8079272,0.191867775 C64.1626153,0.191867775 65.1960113,0.516242775 65.9137517,1.16499277 C66.6314922,1.81374277 66.9903624,2.70624277 66.9903624,3.84061777 C66.9903624,4.67874277 66.7047694,6.20499277 66.137341,8.42124277 L66.137341,8.42124277 Z" id="Shape"></path>
                    <polygon id="Shape" points="112.734104 36.1506178 71.8661124 53.9087428 71.8661124 42.4356178 100.425419 31.2474928 71.8661124 20.2187428 71.8661124 8.82624277 112.734104 26.4212428"></polygon>
                </g>
                <path d="M176.616763,0 L11.2734104,0 C5.04860896,0 0,5.038125 0,11.25 L0,153.75 C0,159.96 5.04860896,165 11.2734104,165 L176.616763,165 C182.843443,165 187.890173,159.96 187.890173,153.75 L187.890173,11.25 C187.890173,5.03625 182.843443,0 176.616763,0 L176.616763,0 Z M148.433237,7.5 C152.576215,7.5 155.948844,10.86375 155.948844,15 C155.948844,19.13625 152.576215,22.5 148.433237,22.5 C144.290259,22.5 140.91763,19.13625 140.91763,15 C140.91763,10.86375 144.290259,7.5 148.433237,7.5 L148.433237,7.5 Z M127.765318,7.5 C131.908296,7.5 135.280925,10.86375 135.280925,15 C135.280925,19.13625 131.908296,22.5 127.765318,22.5 C123.62234,22.5 120.249711,19.13625 120.249711,15 C120.249711,10.86375 123.62234,7.5 127.765318,7.5 L127.765318,7.5 Z M176.616763,153.75 L11.2734104,153.75 L11.2734104,30 L176.616763,30 L176.616763,153.75 L176.616763,153.75 Z M169.101156,22.5 C164.958178,22.5 161.585549,19.13625 161.585549,15 C161.585549,10.86375 164.958178,7.5 169.101156,7.5 C173.244134,7.5 176.616763,10.86375 176.616763,15 C176.616763,19.13625 173.244134,22.5 169.101156,22.5 L169.101156,22.5 Z" id="Shape"></path>
            </g>
        </g>
    </g>
</svg>