<?xml version="1.0" encoding="UTF-8" standalone="no"?>
<svg width="165px" height="165px" viewBox="0 0 165 165" version="1.1" xmlns="http://www.w3.org/2000/svg" xmlns:xlink="http://www.w3.org/1999/xlink">
    <!-- Generator: sketchtool 3.7.2 (28276) - http://www.bohemiancoding.com/sketch -->
    <title>8501290E-280E-4F0B-89C2-92CC617B56BA</title>
    <desc>Created with sketchtool.</desc>
    <defs>
        <rect id="path-1" x="0" y="80" width="1100" height="250"></rect>
        <filter x="-50%" y="-50%" width="200%" height="200%" filterUnits="objectBoundingBox" id="filter-2">
            <feOffset dx="0" dy="2" in="SourceAlpha" result="shadowOffsetOuter1"></feOffset>
            <feGaussianBlur stdDeviation="2" in="shadowOffsetOuter1" result="shadowBlurOuter1"></feGaussianBlur>
            <feColorMatrix values="0 0 0 0 0   0 0 0 0 0   0 0 0 0 0  0 0 0 0.5 0" type="matrix" in="shadowBlurOuter1"></feColorMatrix>
        </filter>
    </defs>
    <g id="Page-3" stroke="none" stroke-width="1" fill="none" fill-rule="evenodd">
        <g id="Desktop-HD" transform="translate(-605.000000, -123.000000)">
            <g id="Rectangle-1">
                <use fill="black" fill-opacity="1" filter="url(#filter-2)" xlink:href="#path-1"></use>
                <use fill="#FFFFFF" fill-rule="evenodd" xlink:href="#path-1"></use>
            </g>
            <g id="dsl" transform="translate(605.000000, 123.000000)" fill="#000000">
                <path d="M32.3938776,63.5468432 C36.1989796,63.5468432 39.2632653,60.4887984 39.2632653,56.691446 C39.2632653,33 58.6591837,13.7443992 82.5,13.7443992 C86.305102,13.7443992 89.3693878,10.6863544 89.3693878,6.88900204 C89.3693878,3.09164969 86.305102,0.033604888 82.5,0.033604888 C51.0826531,-2.31967223e-14 25.5244898,25.4389002 25.5244898,56.691446 C25.5244898,60.4551935 28.5887755,63.5468432 32.3938776,63.5468432 L32.3938776,63.5468432 Z" id="Shape"></path>
                <path d="M82.5,31.3533605 C68.4581633,31.3533605 57.0428571,42.7118126 57.0428571,56.691446 C57.0428571,60.4887984 60.1071429,63.5468432 63.9122449,63.5468432 C67.7173469,63.5468432 70.7816327,60.4887984 70.7816327,56.691446 C70.7816327,50.3065173 76.0346939,45.0977597 82.4663265,45.0977597 C86.2714286,45.0977597 89.3357143,42.0397149 89.3357143,38.2423625 C89.3693878,34.4114053 86.305102,31.3533605 82.5,31.3533605 L82.5,31.3533605 Z" id="Shape"></path>
                <path d="M132.909184,82.5 L94.6561224,57.901222 C91.4571429,55.8513238 87.2142857,56.7586558 85.1602041,59.9511202 C83.1061224,63.1435845 84.0153061,67.3778004 87.2142857,69.4276986 L107.452041,82.4327902 L34.1112245,82.4327902 C15.2877551,82.4327902 0,97.7230143 0,116.474542 C0,135.058045 14.9846939,150.180244 33.505102,150.516293 L33.505102,157.808554 C33.505102,161.605906 36.5693878,164.663951 40.3744898,164.663951 C44.1795918,164.663951 47.2438776,161.605906 47.2438776,157.808554 L47.2438776,150.516293 L117.722449,150.516293 L117.722449,157.808554 C117.722449,161.605906 120.786735,164.663951 124.591837,164.663951 C128.396939,164.663951 131.461224,161.605906 131.461224,157.808554 L131.461224,150.516293 C149.981633,150.213849 164.966327,135.058045 164.966327,116.474542 C165,98.395112 150.789796,83.5417515 132.909184,82.5 L132.909184,82.5 Z M130.888776,136.805499 L34.1112245,136.805499 C22.8979592,136.805499 13.7387755,127.698574 13.7387755,116.474542 C13.7387755,105.284114 22.8642857,96.1435845 34.1112245,96.1435845 L130.888776,96.1435845 C142.102041,96.1435845 151.261224,105.250509 151.261224,116.474542 C151.261224,127.698574 142.102041,136.805499 130.888776,136.805499 L130.888776,136.805499 Z" id="Shape"></path>
            </g>
        </g>
    </g>
</svg>