<?xml version="1.0" encoding="UTF-8" standalone="no"?>
<svg width="300px" height="300px" viewBox="0 0 300 300" version="1.1" xmlns="http://www.w3.org/2000/svg" xmlns:xlink="http://www.w3.org/1999/xlink">
    <!-- Generator: Sketch 3.7.2 (28276) - http://www.bohemiancoding.com/sketch -->
    <title>DSL</title>
    <desc>Created with Sketch.</desc>
    <defs></defs>
    <g id="Page-5" stroke="none" stroke-width="1" fill="none" fill-rule="evenodd">
        <g id="DSL">
            <rect id="Rectangle-1" fill="#FFFFFF" x="0" y="0" width="300" height="300"></rect>
            <g id="dsl" transform="translate(25.000000, 8.000000)" fill="#000000">
                <path d="M49.0816327,96.2830957 C54.8469388,96.2830957 59.4897959,91.6496945 59.4897959,85.8961303 C59.4897959,50 88.877551,20.8248473 125,20.8248473 C130.765306,20.8248473 135.408163,16.191446 135.408163,10.4378819 C135.408163,4.68431772 130.765306,0.0509164969 125,0.0509164969 C77.3979592,-4.38676873e-14 38.6734694,38.5437882 38.6734694,85.8961303 C38.6734694,91.598778 43.3163265,96.2830957 49.0816327,96.2830957 L49.0816327,96.2830957 Z" id="Shape"></path>
                <path d="M125,47.5050916 C103.72449,47.5050916 86.4285714,64.7148676 86.4285714,85.8961303 C86.4285714,91.6496945 91.0714286,96.2830957 96.8367347,96.2830957 C102.602041,96.2830957 107.244898,91.6496945 107.244898,85.8961303 C107.244898,76.2219959 115.204082,68.3299389 124.94898,68.3299389 C130.714286,68.3299389 135.357143,63.6965377 135.357143,57.9429735 C135.408163,52.1384929 130.765306,47.5050916 125,47.5050916 L125,47.5050916 Z" id="Shape"></path>
                <path d="M201.377551,125 L143.418367,87.7291242 C138.571429,84.6232179 132.142857,85.9979633 129.030612,90.8350305 C125.918367,95.6720978 127.295918,102.087576 132.142857,105.193483 L162.806122,124.898167 L51.6836735,124.898167 C23.1632653,124.898167 0,148.065173 0,176.476578 C0,204.633401 22.7040816,227.545825 50.7653061,228.05499 L50.7653061,239.10387 C50.7653061,244.857434 55.4081633,249.490835 61.1734694,249.490835 C66.9387755,249.490835 71.5816327,244.857434 71.5816327,239.10387 L71.5816327,228.05499 L178.367347,228.05499 L178.367347,239.10387 C178.367347,244.857434 183.010204,249.490835 188.77551,249.490835 C194.540816,249.490835 199.183673,244.857434 199.183673,239.10387 L199.183673,228.05499 C227.244898,227.596741 249.94898,204.633401 249.94898,176.476578 C250,149.083503 228.469388,126.578411 201.377551,125 L201.377551,125 Z M198.316327,207.281059 L51.6836735,207.281059 C34.6938776,207.281059 20.8163265,193.482688 20.8163265,176.476578 C20.8163265,159.521385 34.6428571,145.672098 51.6836735,145.672098 L198.316327,145.672098 C215.306122,145.672098 229.183673,159.470468 229.183673,176.476578 C229.183673,193.482688 215.306122,207.281059 198.316327,207.281059 L198.316327,207.281059 Z" id="Shape"></path>
            </g>
            <text id="DSL-fejlfinding" font-family="HelveticaNeue, Helvetica Neue" font-size="24" font-weight="normal" fill="#000000">
                <tspan x="137.432" y="288">DSL fejlfinding</tspan>
            </text>
        </g>
    </g>
</svg>