<?xml version="1.0" encoding="UTF-8" standalone="no"?>
<svg width="300px" height="300px" viewBox="0 0 300 300" version="1.1" xmlns="http://www.w3.org/2000/svg" xmlns:xlink="http://www.w3.org/1999/xlink">
    <!-- Generator: Sketch 3.7.2 (28276) - http://www.bohemiancoding.com/sketch -->
    <title>Mac</title>
    <desc>Created with Sketch.</desc>
    <defs></defs>
    <g id="Page-5" stroke="none" stroke-width="1" fill="none" fill-rule="evenodd">
        <g id="Mac">
            <rect id="Rectangle-1" fill="#FFFFFF" x="0" y="0" width="300" height="300"></rect>
            <g id="imac" transform="translate(11.000000, 8.000000)" fill="#000000">
                <path d="M180.424916,237.168824 C180.416102,237.156471 180.410227,237.144118 180.401413,237.131765 C171.448002,223.134706 170.288137,201.651176 170.201764,199.714706 L170.201764,199.557647 L108.966263,199.557647 C108.966263,199.557647 108.142488,222.464706 98.7595631,237.131765 C95.3052317,237.131765 92.5048671,239.935882 92.5048671,243.393529 C92.5048671,246.852941 95.3052317,249.656471 98.7595631,249.656471 L179.748034,249.656471 C183.202953,249.656471 186.003905,246.852353 186.003905,243.393529 C186.004492,240.164706 183.560784,237.506471 180.424916,237.168824 L180.424916,237.168824 Z" id="Shape"></path>
                <path d="M268.308535,0.437058824 L10.2002369,0.437058824 C4.74581298,0.437058824 0.323751758,4.86411765 0.323751758,10.3247059 L0.323751758,182.372941 C0.323751758,187.833529 4.74581298,192.261176 10.2002369,192.261176 L268.308535,192.261176 C273.762959,192.261176 278.185608,187.834118 278.185608,182.372941 L278.185608,10.3247059 C278.18502,4.86470588 273.762959,0.437058824 268.308535,0.437058824 L268.308535,0.437058824 Z M264.193774,156.665294 L14.3155859,156.665294 L14.3155859,14.2811765 L264.193774,14.2811765 L264.193774,156.665294 L264.193774,156.665294 Z" id="Shape"></path>
            </g>
            <text id="MBB-på-Mac" font-family="HelveticaNeue, Helvetica Neue" font-size="24" font-weight="normal" fill="#000000">
                <tspan x="152.072" y="288">MBB på Mac</tspan>
            </text>
        </g>
    </g>
</svg>