<?xml version="1.0" encoding="UTF-8" standalone="no"?>
<svg width="300px" height="300px" viewBox="0 0 300 300" version="1.1" xmlns="http://www.w3.org/2000/svg" xmlns:xlink="http://www.w3.org/1999/xlink">
    <!-- Generator: Sketch 3.7.2 (28276) - http://www.bohemiancoding.com/sketch -->
    <title>Snart</title>
    <desc>Created with Sketch.</desc>
    <defs></defs>
    <g id="Page-5" stroke="none" stroke-width="1" fill="none" fill-rule="evenodd">
        <g id="Snart">
            <rect id="Rectangle-1" fill="#FFFFFF" x="0" y="0" width="300" height="300"></rect>
            <g id="snart" transform="translate(67.000000, 8.000000)" fill="#000000">
                <path d="M129.848214,76.1904762 C129.848214,74.4047619 129.848214,72.6190476 129.547619,71.1309524 L103.357143,82.4404762 L61.6904762,82.4404762 L36.9880952,72.3214286 C36.9880952,73.5119048 36.6904762,75 36.6904762,76.1904762 C36.6904762,101.785714 57.5238095,122.619048 83.1190476,122.619048 C109.014881,122.619048 129.848214,101.785714 129.848214,76.1904762 L129.848214,76.1904762 Z" id="Shape"></path>
                <path d="M0.678571429,185.119048 L0.678571429,233.928571 L4.25,234.824405 C11.3928571,237.205357 18.5357143,238.991071 25.3809524,240.479167 L25.3809524,160.416667 C25.3809524,146.127976 33.7142857,133.630952 45.6190476,127.678571 C19.7261905,134.22619 0.678571429,157.440476 0.678571429,185.119048 L0.678571429,185.119048 Z" id="Shape"></path>
                <path d="M68.8333333,125.895833 L64.9642857,133.33631 C64.0714286,135.122024 63.7738095,136.610119 63.7738095,138.392857 L63.7738095,162.797619 C63.7738095,169.345238 69.1309524,174.702381 75.6785714,174.702381 L91.1577381,174.702381 C97.702381,174.702381 103.0625,169.345238 103.0625,162.797619 L103.0625,138.392857 C103.0625,136.607143 102.761905,134.824405 101.872024,133.33631 L98,125.895833 L68.8333333,125.895833 L68.8333333,125.895833 Z" id="Shape"></path>
                <path d="M115.559524,138.988095 L115.559524,162.797619 C115.559524,176.190476 104.550595,187.202381 91.1577381,187.202381 L75.6785714,187.202381 C62.2857143,187.202381 51.2738095,176.190476 51.2738095,162.797619 L51.2738095,138.988095 C43.2380952,142.857143 37.8809524,151.193452 37.8809524,160.416667 L37.8809524,243.75 C54.547619,247.02381 70.0238095,248.214286 83.4166667,248.214286 C96.8095238,248.214286 112.285714,246.72619 128.952381,243.75 L128.952381,160.416667 C128.952381,151.193452 123.595238,142.857143 115.559524,138.988095 L115.559524,138.988095 Z" id="Shape"></path>
                <path d="M121.214286,127.678571 C133.416667,133.630952 141.75,146.127976 141.75,160.416667 L141.75,241.071429 C148.592262,239.583333 155.735119,237.502976 162.880952,235.416667 L166.154762,234.229167 L166.154762,185.419643 C166.154762,157.440476 147.107143,134.22619 121.214286,127.678571 L121.214286,127.678571 Z" id="Shape"></path>
                <path d="M83.4166667,36.3095238 C91.1577381,36.3095238 95.0208333,29.4642857 95.0208333,21.4285714 L95.0208333,0 L83.4166667,0 L71.8095238,0 L71.8095238,21.1309524 C71.8095238,29.4642857 75.6785714,36.3095238 83.4166667,36.3095238 L83.4166667,36.3095238 Z" id="Shape"></path>
                <path d="M62.8809524,73.5119048 L103.654762,73.5119048 L134.607143,61.0119048 L137.285714,52.0833333 L134.309524,49.1071429 C132.52381,24.1071429 119.130952,6.8452381 100.678571,0.297619048 L100.678571,21.4285714 C100.678571,33.3333333 93.5357143,43.452381 83.4166667,43.452381 C73.297619,43.452381 66.1547619,33.6309524 66.1547619,21.4285714 L66.1547619,0.297619048 C47.702381,6.8452381 34.3095238,24.1071429 32.2261905,49.1071429 L29.25,52.0833333 L31.9285714,61.0119048 L62.8809524,73.5119048 L62.8809524,73.5119048 Z" id="Shape"></path>
            </g>
            <text id="Kommer-snart" font-family="HelveticaNeue, Helvetica Neue" font-size="24" font-weight="normal" fill="#000000">
                <tspan x="140.936" y="288">Kommer snart</tspan>
            </text>
        </g>
    </g>
</svg>