<?xml version="1.0" encoding="UTF-8" standalone="no"?>
<svg width="300px" height="300px" viewBox="0 0 300 300" version="1.1" xmlns="http://www.w3.org/2000/svg" xmlns:xlink="http://www.w3.org/1999/xlink">
    <!-- Generator: Sketch 3.7.2 (28276) - http://www.bohemiancoding.com/sketch -->
    <title>Telnet</title>
    <desc>Created with Sketch.</desc>
    <defs></defs>
    <g id="Page-5" stroke="none" stroke-width="1" fill="none" fill-rule="evenodd">
        <g id="Telnet">
            <rect id="Rectangle-1" fill="#FFFFFF" x="0" y="0" width="300" height="300"></rect>
            <g id="telnet" transform="translate(8.000000, 8.000000)" fill="#000000">
                <g id="Group" transform="translate(56.800000, 86.492375)">
                    <polygon id="Shape" points="61.77284 64.040967 61.77284 81.3883911 3.3643122e-14 54.6599201 3.3643122e-14 39.8271496 61.77284 13.1015137 61.77284 30.5708431 18.7298 47.1244645"></polygon>
                    <path d="M99.968,12.7329624 L82.7718,83.409753 C82.20096,85.7372959 81.70112,87.5800522 81.26944,88.9266817 C80.8406,90.2761463 80.18456,91.3336049 79.307,92.0792125 C78.4266,92.838995 77.14576,93.2132163 75.46732,93.2132163 C71.29252,93.2132163 69.20228,91.4073152 69.20228,87.821028 C69.20228,86.8798048 69.61408,84.5324168 70.432,80.773194 L87.56572,10.0964034 C88.466,6.33718064 89.32368,3.76299188 90.1416,2.37383715 C90.96236,0.984682426 92.55844,0.290105063 94.93552,0.290105063 C96.98316,0.290105063 98.54516,0.780561732 99.63004,1.76147507 C100.71492,2.74238841 101.25736,4.091853 101.25736,5.80703384 C101.25736,7.07428315 100.82568,9.38198101 99.968,12.7329624 L99.968,12.7329624 Z" id="Shape"></path>
                    <polygon id="Shape" points="170.4 54.6599201 108.62716 81.5102965 108.62716 64.1628725 151.79516 47.2463699 108.62716 30.5708431 108.62716 13.3453245 170.4 39.949055"></polygon>
                </g>
                <path d="M266.96,0 L17.04,0 C7.63108,0 0,7.61767093 0,17.0100579 L0,232.470791 C0,241.860343 7.63108,249.480849 17.04,249.480849 L266.96,249.480849 C276.37176,249.480849 284,241.860343 284,232.470791 L284,17.0100579 C284,7.61483592 276.37176,0 266.96,0 L266.96,0 Z M224.36,11.3400386 C230.6222,11.3400386 235.72,16.4260459 235.72,22.6800772 C235.72,28.9341085 230.6222,34.0201158 224.36,34.0201158 C218.0978,34.0201158 213,28.9341085 213,22.6800772 C213,16.4260459 218.0978,11.3400386 224.36,11.3400386 L224.36,11.3400386 Z M193.12,11.3400386 C199.3822,11.3400386 204.48,16.4260459 204.48,22.6800772 C204.48,28.9341085 199.3822,34.0201158 193.12,34.0201158 C186.8578,34.0201158 181.76,28.9341085 181.76,22.6800772 C181.76,16.4260459 186.8578,11.3400386 193.12,11.3400386 L193.12,11.3400386 Z M266.96,232.470791 L17.04,232.470791 L17.04,45.3601544 L266.96,45.3601544 L266.96,232.470791 L266.96,232.470791 Z M255.6,34.0201158 C249.3378,34.0201158 244.24,28.9341085 244.24,22.6800772 C244.24,16.4260459 249.3378,11.3400386 255.6,11.3400386 C261.8622,11.3400386 266.96,16.4260459 266.96,22.6800772 C266.96,28.9341085 261.8622,34.0201158 255.6,34.0201158 L255.6,34.0201158 Z" id="Shape"></path>
            </g>
            <text id="Portforwarding" font-family="HelveticaNeue, Helvetica Neue" font-size="24" font-weight="normal" fill="#000000">
                <tspan x="133.496" y="288">Portforwarding</tspan>
            </text>
        </g>
    </g>
</svg>